<?xml version="1.0" encoding="UTF-8"?>
<svg id="Livello_2" data-name="Livello 2" xmlns="http://www.w3.org/2000/svg" viewBox="0 0 586.09 468.07">
  <defs>
    <style>
      .cls-1 {
        stroke: #1d1d1b;
        stroke-miterlimit: 10;
      }
    </style>
  </defs>
  <g id="Livello_1-2" data-name="Livello 1">
    <polygon class="cls-1" points=".72 466.67 172.99 .94 184.24 .94 220.6 102.22 85.55 466.67 .72 466.67"/>
    <path class="cls-1" d="M250.68,229.26l14.72-6.06,87,243.47h-86.13l-.87-14.5s27.92,2.16,38.09-7.36c10.17-9.52,14.36-18.54,11.25-35.93-3.18-17.83-64.06-179.63-64.06-179.63Z"/>
    <path class="cls-1" d="M368.41,453.47v13.2s58.21,2.02,77.48,0c26.9-2.82,57.21-12.12,93.28-54.83,36.07-42.71,41.46-67.36,43.28-92.92,3.09-43.17,5.16-130.16,0-173.13-4.76-39.68-24.67-68.68-47.85-95.23C493.36,3.32,456.64,5.27,438.17,2.38c-19.81-3.09-91.18-1.44-91.18-1.44v18.47s55.86-1.01,74.45,0c16.43.89,31.74,3.46,51.94,40.4,20.2,36.94,26.84,61.17,27.7,74.45.87,13.27,4.98,145.15,1.15,193.33-1.54,19.43-7.5,46.46-23.08,74.45-15.58,27.99-38.67,47.61-57.42,50.21-13.42,1.86-53.31,1.23-53.31,1.23Z"/>
  </g>
</svg>